<svg viewBox="0 0 24 24" xmlns="http://www.w3.org/2000/svg" fill="currentColor">
<path fill-rule="evenodd" clip-rule="evenodd" d="M9 7C10.1046 7 11 6.10457 11 5C11 3.89543 10.1046 3 9 3C7.89544 3 7 3.89543 7 5C7 6.10457 7.89544 7 9 7ZM4.82591 13.8881L6.59961 11.2899V14.9327V20C6.59961 20.5523 7.04733 21 7.59961 21C8.1519 21 8.59961 20.5523 8.59961 20V15.3313C8.74543 15.3471 8.88149 15.3564 9 15.3564C9.13087 15.3564 9.28313 15.3451 9.44629 15.3261V20C9.44629 20.5523 9.89401 21 10.4463 21C10.9986 21 11.4463 20.5523 11.4463 20V15.2457C11.1586 14.5458 11 13.7792 11 12.9756C11 11.5276 11.515 10.1999 12.3719 9.16567L12.3036 9.06566C10.7155 6.73934 7.2845 6.73935 5.6964 9.06566L3.1741 12.7604C2.86272 13.2166 2.98006 13.8388 3.43619 14.1501C3.89232 14.4615 4.51452 14.3442 4.82591 13.8881Z" />
<path fill-rule="evenodd" clip-rule="evenodd" d="M17 18C19.7614 18 22 15.7614 22 13C22 10.2386 19.7614 8 17 8C14.2386 8 12 10.2386 12 13C12 15.7614 14.2386 18 17 18ZM14.206 12.2633C13.7777 12.6592 13.7777 13.3361 14.206 13.732L15.9701 15.3625C16.1728 15.55 16.4892 15.5375 16.6766 15.3348C16.8641 15.132 16.8516 14.8156 16.6488 14.6282L15.4916 13.5586H19.6152C19.8913 13.5586 20.1152 13.3347 20.1152 13.0586C20.1152 12.7825 19.8913 12.5586 19.6152 12.5586H15.3598L16.6488 11.3672C16.8516 11.1797 16.8641 10.8634 16.6766 10.6606C16.4892 10.4578 16.1728 10.4454 15.9701 10.6328L14.206 12.2633Z" />
</svg>
