<svg viewBox="0 0 336 336" fill="none" xmlns="http://www.w3.org/2000/svg">
<path fill-rule="evenodd" clip-rule="evenodd" d="M277.98 71.1044C277.98 61.574 270.255 53.848 260.724 53.848L116.421 53.848C106.89 53.848 99.1642 61.574 99.1642 71.1044L99.1642 94.304C99.1642 103.834 91.4383 111.56 81.9079 111.56L58.7081 111.56C49.1777 111.56 41.4517 119.286 41.4517 128.817L41.4517 273.12C41.4517 282.651 49.1777 290.377 58.7081 290.377H203.012C212.542 290.377 220.268 282.651 220.268 273.12V249.921C220.268 240.39 227.994 232.664 237.524 232.664H260.724C270.255 232.664 277.981 224.938 277.981 215.408L277.98 71.1044Z" fill="#FEEBCB"/>
<path d="M322.662 151.234H271.913V177.049L220.138 177.048V202.862L168.428 203.001V228.815L116.719 228.814V255.707L65.0092 255.651V281.466L13.4531 281.467V307.281" stroke="#2C5282" stroke-linecap="round" stroke-linejoin="round"/>
<path d="M300.588 307.281C304.511 307.281 296.469 307.281 300.588 307.281C310.065 307.281 317.748 299.598 317.748 290.122C317.748 280.644 310.065 272.961 300.588 272.961C299.805 272.961 299.035 273.013 298.28 273.115C294.44 265.048 286.213 259.472 276.683 259.472C263.891 259.472 253.446 269.519 252.809 282.153C252.799 282.153 252.789 282.153 252.779 282.153C245.84 282.153 240.214 287.778 240.214 294.717C240.214 301.656 245.84 307.281 252.779 307.281C256.713 307.281 285.84 307.281 300.588 307.281Z" fill="white"/>
<path d="M300.588 307.281C296.469 307.281 304.511 307.281 300.588 307.281ZM300.588 307.281C310.065 307.281 317.748 299.598 317.748 290.122C317.748 280.644 310.065 272.961 300.588 272.961C299.805 272.961 299.035 273.013 298.28 273.115C294.44 265.048 286.213 259.472 276.683 259.472C263.891 259.472 253.446 269.519 252.809 282.153C252.799 282.153 252.789 282.153 252.779 282.153C245.84 282.153 240.214 287.778 240.214 294.717C240.214 301.656 245.84 307.281 252.779 307.281C256.713 307.281 285.84 307.281 300.588 307.281Z" stroke="#2C5282"/>
<path d="M31.803 75.5364C28.7121 75.5364 35.0491 75.5364 31.803 75.5364C24.3351 75.5364 18.2812 69.4823 18.2812 62.0149C18.2812 54.5469 24.3351 48.4929 31.803 48.4929C32.4197 48.4929 33.0267 48.5339 33.6216 48.614C36.6473 42.2572 43.1304 37.8633 50.6395 37.8633C60.7194 37.8633 68.9499 45.7805 69.4518 55.7355C69.4598 55.7355 69.468 55.7355 69.476 55.7355C74.9438 55.7355 79.3765 60.1681 79.3765 65.6361C79.3765 71.1037 74.9438 75.5364 69.476 75.5364C66.3758 75.5364 43.4244 75.5364 31.803 75.5364Z" fill="white"/>
<path d="M31.803 75.5363C35.0491 75.5363 28.7121 75.5363 31.803 75.5363ZM31.803 75.5363C24.3351 75.5363 18.2812 69.4823 18.2812 62.0149C18.2812 54.5469 24.3351 48.4929 31.803 48.4929C32.4197 48.4929 33.0267 48.5339 33.6216 48.614C36.6473 42.2572 43.1304 37.8633 50.6395 37.8633C60.7194 37.8633 68.9499 45.7805 69.4518 55.7355C69.4598 55.7355 69.468 55.7355 69.476 55.7355C74.9438 55.7355 79.3765 60.1681 79.3765 65.6361C79.3765 71.1037 74.9438 75.5363 69.476 75.5363C66.3758 75.5363 43.4244 75.5363 31.803 75.5363Z" stroke="#2C5282"/>
<path fill-rule="evenodd" clip-rule="evenodd" d="M121.117 154.999C120.631 151.727 117.584 149.468 114.312 149.954C111.039 150.44 108.78 153.487 109.266 156.759L119.063 187.876L98.843 205.957C96.3767 208.163 96.1653 211.95 98.3707 214.416C100.576 216.882 104.363 217.093 106.829 214.888L129.798 194.348C131.269 193.033 131.938 191.155 131.771 189.331C131.763 189.101 131.743 188.87 131.708 188.638L121.117 154.999Z" fill="#BEE3F8"/>
<path d="M114.312 149.954L114.238 149.459L114.312 149.954ZM121.117 154.999L120.623 155.073C120.627 155.099 120.633 155.124 120.64 155.149L121.117 154.999ZM109.266 156.759L108.772 156.833C108.776 156.859 108.782 156.884 108.789 156.909L109.266 156.759ZM119.063 187.876L119.396 188.248C119.543 188.117 119.599 187.913 119.54 187.725L119.063 187.876ZM98.843 205.957L98.5097 205.584L98.843 205.957ZM98.3707 214.416L98.7434 214.082L98.3707 214.416ZM106.829 214.888L106.496 214.515L106.829 214.888ZM129.798 194.348L130.132 194.721L130.132 194.721L129.798 194.348ZM131.771 189.331L131.271 189.347C131.271 189.357 131.272 189.367 131.273 189.376L131.771 189.331ZM131.708 188.638L132.203 188.564C132.199 188.538 132.193 188.513 132.185 188.487L131.708 188.638ZM114.385 150.448C117.385 150.003 120.177 152.073 120.623 155.073L121.612 154.926C121.085 151.38 117.784 148.933 114.238 149.459L114.385 150.448ZM109.761 156.686C109.315 153.686 111.386 150.894 114.385 150.448L114.238 149.459C110.693 149.986 108.245 153.287 108.772 156.833L109.761 156.686ZM119.54 187.725L109.743 156.609L108.789 156.909L118.586 188.026L119.54 187.725ZM99.1763 206.33L119.396 188.248L118.73 187.503L98.5097 205.584L99.1763 206.33ZM98.7434 214.082C96.7221 211.822 96.9159 208.351 99.1763 206.33L98.5097 205.584C95.8376 207.974 95.6085 212.077 97.998 214.749L98.7434 214.082ZM106.496 214.515C104.236 216.537 100.765 216.343 98.7434 214.082L97.998 214.749C100.387 217.421 104.491 217.65 107.163 215.261L106.496 214.515ZM129.465 193.976L106.496 214.515L107.163 215.261L130.132 194.721L129.465 193.976ZM131.273 189.376C131.426 191.05 130.813 192.77 129.465 193.976L130.132 194.721C131.725 193.296 132.45 191.261 132.269 189.285L131.273 189.376ZM131.213 188.711C131.245 188.925 131.264 189.137 131.271 189.347L132.27 189.315C132.262 189.066 132.24 188.816 132.203 188.564L131.213 188.711ZM120.64 155.149L131.231 188.788L132.185 188.487L121.594 154.849L120.64 155.149Z" fill="#2C5282"/>
<path d="M98.1852 206.921L98.0957 206.842L91.1772 214.645L108.522 230.023C112.343 225.713 111.946 219.122 107.637 215.301L103.201 211.368C102.636 212.005 101.83 212.382 100.961 212.415C100.091 212.449 99.2288 212.136 98.5636 211.547C97.8985 210.957 97.485 210.138 97.414 209.271C97.343 208.403 97.6205 207.558 98.1852 206.921Z" fill="white" stroke="#2C5282" stroke-linecap="round" stroke-linejoin="round"/>
<path d="M103.121 211.353C102.557 211.971 101.762 212.334 100.903 212.364C100.03 212.394 99.1627 212.078 98.4926 211.484C97.8226 210.89 97.4043 210.067 97.3299 209.196C97.2555 208.326 97.5309 207.479 98.0957 206.842L91.1772 214.645L103.382 225.466C106.992 221.393 106.814 215.263 103.121 211.353Z" fill="#38B2AC" stroke="#2C5282" stroke-linecap="round" stroke-linejoin="round"/>
<path d="M108.153 215.758C108.735 215.101 109.033 214.24 108.98 213.364C108.928 212.488 108.529 211.669 107.872 211.087C107.216 210.505 106.355 210.207 105.479 210.26C104.603 210.312 103.784 210.711 103.201 211.368L108.153 215.758Z" fill="white" stroke="#2C5282" stroke-linecap="round"/>
<path d="M109.173 228.892C109.738 228.255 110.016 227.41 109.945 226.543C109.874 225.675 109.46 224.857 108.795 224.267C108.13 223.677 107.268 223.365 106.398 223.398C105.528 223.432 104.722 223.808 104.158 224.445L109.173 228.892Z" fill="white" stroke="#2C5282" stroke-linecap="round"/>
<path d="M111.106 223.786C111.004 222.544 110.412 221.371 109.46 220.527C108.507 219.682 107.272 219.235 106.027 219.283" stroke="#2C5282" stroke-linecap="round"/>
<path d="M110.904 220.903C110.803 219.661 110.03 218.329 109.077 217.484C108.125 216.64 107.04 216.325 105.794 216.373" stroke="#2C5282" stroke-linecap="round"/>
<rect x="91.9668" y="213.755" width="23.1797" height="3.29001" transform="rotate(41.5599 91.9668 213.755)" fill="white" stroke="#2C5282" stroke-linecap="round" stroke-linejoin="round"/>
<path fill-rule="evenodd" clip-rule="evenodd" d="M112.209 126.857C78.6786 143.897 80.3355 174.205 80.3355 174.205C80.3355 174.205 84.4631 177.578 91.7263 180.242L73.2132 242.946C72.2764 246.12 74.0892 249.451 77.2623 250.388C80.4353 251.325 83.767 249.512 84.7039 246.339L103.326 183.266C103.348 183.192 103.368 183.117 103.387 183.042C112.636 184.159 124.234 183.046 137.371 176.37C151.044 169.422 156.495 152.705 149.547 139.033C142.598 125.36 125.882 119.909 112.209 126.857Z" fill="#BEE3F8"/>
<path d="M80.3355 174.205L79.8363 174.232C79.844 174.373 79.9103 174.503 80.0192 174.592L80.3355 174.205ZM91.7263 180.242L92.2058 180.384C92.2805 180.131 92.146 179.863 91.8985 179.773L91.7263 180.242ZM73.2132 242.946L72.7337 242.805L72.7337 242.805L73.2132 242.946ZM77.2623 250.388L77.4039 249.909L77.4039 249.909L77.2623 250.388ZM84.7039 246.339L85.1834 246.481L84.7039 246.339ZM103.326 183.266L102.846 183.125L102.846 183.125L103.326 183.266ZM103.387 183.042L103.447 182.546C103.198 182.516 102.965 182.675 102.903 182.919L103.387 183.042ZM80.3355 174.205C80.8348 174.178 80.8348 174.178 80.8348 174.178C80.8348 174.178 80.8348 174.178 80.8348 174.178C80.8348 174.177 80.8347 174.176 80.8346 174.175C80.8345 174.172 80.8342 174.167 80.834 174.16C80.8333 174.147 80.8325 174.127 80.8315 174.099C80.8295 174.045 80.827 173.962 80.825 173.852C80.8212 173.632 80.8198 173.305 80.8297 172.881C80.8495 172.033 80.9148 170.799 81.0971 169.262C81.4617 166.188 82.2939 161.91 84.1644 157.103C87.9021 147.497 95.7922 135.761 112.436 127.303L111.983 126.411C95.0958 134.993 87.049 146.932 83.2325 156.74C81.3259 161.64 80.4766 166.003 80.104 169.144C79.9177 170.715 79.8505 171.982 79.83 172.858C79.8197 173.296 79.8211 173.637 79.8252 173.869C79.8272 173.986 79.8299 174.075 79.8321 174.136C79.8333 174.166 79.8343 174.19 79.835 174.206C79.8354 174.214 79.8357 174.22 79.8359 174.225C79.836 174.227 79.8361 174.229 79.8362 174.23C79.8362 174.231 79.8362 174.231 79.8362 174.232C79.8363 174.232 79.8363 174.232 80.3355 174.205ZM91.8985 179.773C88.3019 178.453 85.4833 176.959 83.5665 175.797C82.6082 175.216 81.8758 174.718 81.3848 174.367C81.1393 174.191 80.9541 174.053 80.8313 173.958C80.7699 173.911 80.7241 173.875 80.6941 173.852C80.6791 173.84 80.6681 173.831 80.6611 173.825C80.6575 173.822 80.655 173.82 80.6535 173.819C80.6527 173.819 80.6522 173.818 80.6519 173.818C80.6518 173.818 80.6517 173.818 80.6517 173.818C80.6517 173.818 80.6518 173.818 80.6518 173.818C80.6518 173.818 80.6519 173.818 80.3355 174.205C80.0192 174.592 80.0193 174.592 80.0194 174.593C80.0195 174.593 80.0196 174.593 80.0197 174.593C80.02 174.593 80.0203 174.593 80.0207 174.594C80.0214 174.594 80.0224 174.595 80.0237 174.596C80.0261 174.598 80.0297 174.601 80.0342 174.604C80.0432 174.612 80.0562 174.622 80.0732 174.636C80.1072 174.663 80.1572 174.702 80.2228 174.752C80.3541 174.853 80.5482 174.998 80.8032 175.18C81.313 175.545 82.0664 176.057 83.048 176.652C85.0108 177.842 87.8875 179.366 91.5541 180.711L91.8985 179.773ZM73.6928 243.088L92.2058 180.384L91.2468 180.1L72.7337 242.805L73.6928 243.088ZM77.4039 249.909C74.4956 249.05 72.8341 245.996 73.6928 243.088L72.7337 242.805C71.7187 246.243 73.6828 249.853 77.1207 250.868L77.4039 249.909ZM84.2243 246.197C83.3657 249.106 80.3121 250.767 77.4039 249.909L77.1207 250.868C80.5586 251.883 84.1684 249.918 85.1834 246.481L84.2243 246.197ZM102.846 183.125L84.2243 246.197L85.1834 246.481L103.805 183.408L102.846 183.125ZM102.903 182.919C102.885 182.988 102.866 183.056 102.846 183.125L103.805 183.408C103.829 183.327 103.851 183.246 103.872 183.165L102.903 182.919ZM137.145 175.924C124.099 182.554 112.601 183.651 103.447 182.546L103.327 183.539C112.67 184.666 124.369 183.539 137.598 176.816L137.145 175.924ZM149.101 139.259C155.924 152.686 150.571 169.101 137.145 175.924L137.598 176.816C151.517 169.742 157.066 152.725 149.992 138.806L149.101 139.259ZM112.436 127.303C125.862 120.48 142.278 125.833 149.101 139.259L149.992 138.806C142.919 124.887 125.902 119.338 111.983 126.411L112.436 127.303Z" fill="#2C5282"/>
<path d="M144.085 171.58C131.039 178.21 115.089 173.009 108.459 159.963C101.829 146.917 106.952 130.819 119.998 124.189" stroke="#2C5282" stroke-linecap="round"/>
<path d="M97.6023 136.887C88.3376 144.498 85.3632 157.851 91.0197 168.982C95.4184 177.638 103.978 182.791 113.026 183.246" stroke="#2C5282" stroke-linecap="round"/>
<path fill-rule="evenodd" clip-rule="evenodd" d="M170.51 139.585C167.518 138.174 163.948 139.457 162.538 142.45C161.127 145.442 162.41 149.012 165.403 150.422L194.056 156.903L194.056 189.555C194.056 192.864 196.738 195.546 200.046 195.546C203.355 195.546 206.037 192.864 206.037 189.555L206.037 152.956C206.38 150.471 205.101 148.002 202.682 146.862C199.689 145.451 170.51 139.585 170.51 139.585Z" fill="#BEE3F8"/>
<path d="M162.538 142.45L162.086 142.237L162.538 142.45ZM170.51 139.585L170.297 140.037C170.334 140.054 170.372 140.067 170.412 140.075L170.51 139.585ZM165.403 150.422L165.19 150.875C165.223 150.89 165.257 150.902 165.293 150.91L165.403 150.422ZM194.056 156.903L194.556 156.903C194.556 156.67 194.394 156.467 194.166 156.416L194.056 156.903ZM194.056 189.555L194.556 189.555L194.556 189.555L194.056 189.555ZM200.046 195.546L200.046 196.046L200.046 196.046L200.046 195.546ZM206.037 189.555L206.537 189.555L206.037 189.555ZM206.037 152.956L205.541 152.888C205.538 152.91 205.537 152.933 205.537 152.956L206.037 152.956ZM202.682 146.862L202.469 147.314L202.682 146.862ZM162.99 142.663C164.283 139.92 167.554 138.744 170.297 140.037L170.724 139.132C167.481 137.604 163.614 138.994 162.086 142.237L162.99 142.663ZM165.616 149.97C162.873 148.677 161.697 145.406 162.99 142.663L162.086 142.237C160.557 145.479 161.947 149.347 165.19 150.875L165.616 149.97ZM194.166 156.416L165.513 149.935L165.293 150.91L193.945 157.391L194.166 156.416ZM194.556 189.555L194.556 156.903L193.556 156.903L193.556 189.555L194.556 189.555ZM200.046 195.046C197.014 195.046 194.556 192.587 194.556 189.555L193.556 189.555C193.556 193.14 196.462 196.046 200.046 196.046L200.046 195.046ZM205.537 189.555C205.537 192.587 203.078 195.046 200.046 195.046L200.046 196.046C203.631 196.046 206.537 193.14 206.537 189.555L205.537 189.555ZM205.537 152.956L205.537 189.555L206.537 189.555L206.537 152.956L205.537 152.956ZM202.469 147.314C204.69 148.36 205.855 150.618 205.541 152.888L206.532 153.024C206.905 150.323 205.512 147.643 202.895 146.409L202.469 147.314ZM170.51 139.585C170.412 140.075 170.412 140.075 170.412 140.075C170.412 140.075 170.413 140.075 170.413 140.075C170.414 140.075 170.415 140.075 170.417 140.076C170.421 140.077 170.426 140.078 170.433 140.079C170.447 140.082 170.468 140.086 170.495 140.092C170.551 140.103 170.633 140.119 170.74 140.141C170.954 140.184 171.269 140.248 171.671 140.329C172.474 140.493 173.625 140.727 175.016 141.013C177.797 141.585 181.537 142.362 185.369 143.183C189.202 144.004 193.126 144.869 196.277 145.616C197.853 145.99 199.232 146.333 200.309 146.626C201.401 146.924 202.141 147.159 202.469 147.314L202.895 146.409C202.475 146.211 201.648 145.955 200.572 145.662C199.48 145.364 198.088 145.018 196.508 144.643C193.346 143.893 189.414 143.027 185.579 142.205C181.742 141.383 178 140.606 175.217 140.034C173.825 139.747 172.674 139.513 171.87 139.349C171.468 139.268 171.152 139.204 170.938 139.161C170.831 139.139 170.748 139.122 170.693 139.111C170.665 139.106 170.644 139.102 170.63 139.099C170.623 139.097 170.618 139.096 170.614 139.095C170.613 139.095 170.611 139.095 170.61 139.095C170.61 139.095 170.61 139.095 170.609 139.094C170.609 139.094 170.609 139.094 170.51 139.585Z" fill="#2C5282"/>
<path fill-rule="evenodd" clip-rule="evenodd" d="M156.616 167.148C166.478 163.696 173.55 154.309 173.55 143.269C173.55 129.299 162.226 117.975 148.257 117.975C134.287 117.975 122.963 129.299 122.963 143.269C122.963 156.046 132.436 166.61 144.742 168.32L145.849 173.19C146.286 175.114 146.144 177.124 145.441 178.968L131.235 216.225C130.661 217.732 131.38 219.423 132.863 220.054L137.813 222.161C139.365 222.821 141.157 222.073 141.778 220.504L157.883 179.81C158.657 177.852 158.795 175.701 158.275 173.661L156.616 167.148Z" fill="#BEE3F8"/>
<path d="M156.616 167.148L156.451 166.676C156.206 166.762 156.068 167.021 156.132 167.272L156.616 167.148ZM144.742 168.32L145.23 168.21C145.184 168.007 145.017 167.854 144.811 167.825L144.742 168.32ZM145.849 173.19L146.336 173.079L145.849 173.19ZM145.441 178.968L144.974 178.79L145.441 178.968ZM131.235 216.225L130.768 216.047L131.235 216.225ZM132.863 220.054L132.668 220.514H132.668L132.863 220.054ZM137.813 222.161L137.617 222.621L137.813 222.161ZM141.778 220.504L142.242 220.688L141.778 220.504ZM157.883 179.81L158.348 179.994L157.883 179.81ZM158.275 173.661L157.791 173.785L158.275 173.661ZM173.05 143.269C173.05 154.09 166.118 163.293 156.451 166.676L156.781 167.62C166.837 164.1 174.05 154.528 174.05 143.269H173.05ZM148.257 118.475C161.95 118.475 173.05 129.576 173.05 143.269H174.05C174.05 129.023 162.502 117.475 148.257 117.475V118.475ZM123.463 143.269C123.463 129.576 134.563 118.475 148.257 118.475V117.475C134.011 117.475 122.463 129.023 122.463 143.269H123.463ZM144.811 167.825C132.749 166.148 123.463 155.793 123.463 143.269H122.463C122.463 156.299 132.124 167.071 144.674 168.816L144.811 167.825ZM146.336 173.079L145.23 168.21L144.255 168.431L145.361 173.301L146.336 173.079ZM145.908 179.146C146.646 177.21 146.795 175.1 146.336 173.079L145.361 173.301C145.776 175.129 145.642 177.038 144.974 178.79L145.908 179.146ZM131.702 216.403L145.908 179.146L144.974 178.79L130.768 216.047L131.702 216.403ZM133.059 219.594C131.823 219.068 131.224 217.659 131.702 216.403L130.768 216.047C130.098 217.805 130.937 219.778 132.668 220.514L133.059 219.594ZM138.009 221.701L133.059 219.594L132.668 220.514L137.617 222.621L138.009 221.701ZM141.313 220.32C140.795 221.628 139.302 222.251 138.009 221.701L137.617 222.621C139.428 223.392 141.518 222.518 142.242 220.688L141.313 220.32ZM157.418 179.626L141.313 220.32L142.242 220.688L158.348 179.994L157.418 179.626ZM157.791 173.785C158.284 175.722 158.154 177.766 157.418 179.626L158.348 179.994C159.161 177.939 159.305 175.679 158.76 173.538L157.791 173.785ZM156.132 167.272L157.791 173.785L158.76 173.538L157.101 167.025L156.132 167.272Z" fill="#2C5282"/>
<path d="M131.102 216.315H130.982V226.744H154.162C154.162 220.984 149.493 216.315 143.733 216.315H137.805C137.805 217.166 137.452 217.983 136.824 218.585C136.195 219.187 135.343 219.525 134.454 219.525C133.565 219.525 132.712 219.187 132.084 218.585C131.455 217.983 131.102 217.166 131.102 216.315Z" fill="white" stroke="#2C5282" stroke-linecap="round" stroke-linejoin="round"/>
<path d="M137.735 216.357C137.723 217.193 137.369 217.993 136.746 218.585C136.113 219.187 135.254 219.525 134.359 219.525C133.463 219.525 132.605 219.187 131.971 218.585C131.338 217.983 130.982 217.166 130.982 216.315V226.744H147.293C147.293 221.301 143.093 216.832 137.735 216.357Z" fill="#38B2AC" stroke="#2C5282" stroke-linecap="round" stroke-linejoin="round"/>
<path d="M144.423 216.316C144.423 215.438 144.074 214.597 143.453 213.976C142.833 213.355 141.991 213.007 141.114 213.007C140.236 213.007 139.394 213.355 138.774 213.976C138.153 214.597 137.805 215.438 137.805 216.316L144.423 216.316Z" fill="white" stroke="#2C5282" stroke-linecap="round"/>
<path d="M153.9 225.468C153.9 224.617 153.547 223.8 152.919 223.198C152.29 222.596 151.438 222.258 150.549 222.258C149.66 222.258 148.807 222.596 148.179 223.198C147.55 223.8 147.197 224.617 147.197 225.468L153.9 225.468Z" fill="white" stroke="#2C5282" stroke-linecap="round"/>
<path d="M151.958 220.364C151.058 219.501 149.837 219.017 148.564 219.017C147.291 219.017 146.07 219.501 145.17 220.364" stroke="#2C5282" stroke-linecap="round"/>
<path d="M149.896 218.34C148.996 217.477 147.533 216.993 146.26 216.993C144.987 216.993 143.967 217.477 143.066 218.34" stroke="#2C5282" stroke-linecap="round"/>
<rect x="130.982" y="225.555" width="23.1797" height="3.29001" fill="white" stroke="#2C5282" stroke-linecap="round" stroke-linejoin="round"/>
<path d="M72.6743 243.12H72.5547V253.548H95.7344C95.7344 247.789 91.0652 243.12 85.3055 243.12H79.3776C79.3776 243.971 79.0245 244.787 78.3959 245.389C77.7674 245.991 76.9149 246.33 76.026 246.33C75.1371 246.33 74.2846 245.991 73.656 245.389C73.0275 244.787 72.6743 243.971 72.6743 243.12Z" fill="white" stroke="#2C5282" stroke-linecap="round" stroke-linejoin="round"/>
<path d="M79.3072 243.162C79.2957 243.998 78.9413 244.797 78.3185 245.389C77.6853 245.991 76.8265 246.33 75.9311 246.33C75.0356 246.33 74.1768 245.991 73.5436 245.389C72.9104 244.787 72.5547 243.971 72.5547 243.12V253.548H88.8651C88.8651 248.106 84.6652 243.637 79.3072 243.162Z" fill="#38B2AC" stroke="#2C5282" stroke-linecap="round" stroke-linejoin="round"/>
<path d="M85.9948 243.12C85.9948 242.243 85.6462 241.401 85.0256 240.781C84.4051 240.16 83.5635 239.812 82.6859 239.812C81.8083 239.812 80.9667 240.16 80.3461 240.781C79.7256 241.401 79.377 242.243 79.377 243.12L85.9948 243.12Z" fill="white" stroke="#2C5282" stroke-linecap="round"/>
<path d="M95.4728 252.272C95.4728 251.421 95.1196 250.604 94.4911 250.002C93.8625 249.4 93.01 249.062 92.1211 249.062C91.2322 249.062 90.3797 249.4 89.7512 250.002C89.1226 250.604 88.7695 251.421 88.7695 252.272L95.4728 252.272Z" fill="white" stroke="#2C5282" stroke-linecap="round"/>
<path d="M93.5321 247.168C92.632 246.306 91.4111 245.822 90.1381 245.822C88.8651 245.822 87.6443 246.306 86.7441 247.168" stroke="#2C5282" stroke-linecap="round"/>
<path d="M91.468 245.144C90.5678 244.282 89.1055 243.798 87.8325 243.798C86.5595 243.798 85.5388 244.282 84.6387 245.144" stroke="#2C5282" stroke-linecap="round"/>
<rect x="72.5547" y="252.36" width="23.1797" height="3.29001" fill="white" stroke="#2C5282" stroke-linecap="round" stroke-linejoin="round"/>
<path d="M194.186 190.332H194.066V200.76H217.246C217.246 195.001 212.577 190.332 206.817 190.332H200.889C200.889 191.183 200.536 191.999 199.908 192.601C199.279 193.203 198.427 193.542 197.538 193.542C196.649 193.542 195.796 193.203 195.168 192.601C194.539 191.999 194.186 191.183 194.186 190.332Z" fill="white" stroke="#2C5282" stroke-linecap="round" stroke-linejoin="round"/>
<path d="M200.819 190.373C200.807 191.21 200.453 192.009 199.83 192.601C199.197 193.203 198.338 193.542 197.443 193.542C196.547 193.542 195.689 193.203 195.055 192.601C194.422 191.999 194.066 191.183 194.066 190.332V200.76H210.377C210.377 195.318 206.177 190.849 200.819 190.373Z" fill="#38B2AC" stroke="#2C5282" stroke-linecap="round" stroke-linejoin="round"/>
<path d="M207.507 190.333C207.507 189.455 207.158 188.614 206.537 187.993C205.917 187.373 205.075 187.024 204.198 187.024C203.32 187.024 202.478 187.373 201.858 187.993C201.237 188.614 200.889 189.455 200.889 190.333L207.507 190.333Z" fill="white" stroke="#2C5282" stroke-linecap="round"/>
<path d="M216.984 199.484C216.984 198.633 216.631 197.816 216.003 197.214C215.374 196.612 214.522 196.274 213.633 196.274C212.744 196.274 211.891 196.612 211.263 197.214C210.634 197.816 210.281 198.633 210.281 199.484L216.984 199.484Z" fill="white" stroke="#2C5282" stroke-linecap="round"/>
<path d="M215.044 194.38C214.144 193.518 212.923 193.034 211.65 193.034C210.377 193.034 209.156 193.518 208.256 194.38" stroke="#2C5282" stroke-linecap="round"/>
<path d="M212.98 192.356C212.08 191.494 210.617 191.009 209.344 191.009C208.071 191.009 207.051 191.494 206.15 192.356" stroke="#2C5282" stroke-linecap="round"/>
<rect x="194.066" y="199.572" width="23.1797" height="3.29001" fill="white" stroke="#2C5282" stroke-linecap="round" stroke-linejoin="round"/>
<path fill-rule="evenodd" clip-rule="evenodd" d="M219.963 99.8998C219.585 100.937 219.411 102.031 219.439 103.122C218.958 103.437 218.413 103.768 217.822 104.107C209.461 108.914 199.526 109.895 189.948 108.765L177.881 107.342C177.881 107.342 173.288 111.519 173.681 113.644C173.894 114.796 183.555 116.032 192.347 116.922C201.657 117.864 211.093 116.277 219.345 111.866C220.617 111.186 221.839 110.508 222.929 109.865C226.316 112.405 231.142 112.159 234.253 109.1C237.683 105.727 237.729 100.213 234.357 96.7827C232.639 95.0357 230.366 94.1664 228.095 94.1795L229.173 89.6177C229.593 87.8387 228.491 86.056 226.712 85.6359C224.933 85.2157 223.151 86.3173 222.73 88.0963L220.028 99.5413C219.999 99.6609 219.978 99.7806 219.963 99.8998Z" fill="#BEE3F8"/>
<path d="M219.439 103.122L219.713 103.54C219.858 103.445 219.944 103.282 219.939 103.108L219.439 103.122ZM219.963 99.8998L220.433 100.071C220.446 100.036 220.455 99.9987 220.459 99.9612L219.963 99.8998ZM217.822 104.107L218.071 104.541L217.822 104.107ZM189.948 108.765L189.889 109.262L189.948 108.765ZM177.881 107.342L177.939 106.845C177.796 106.828 177.652 106.874 177.544 106.972L177.881 107.342ZM173.681 113.644L174.173 113.553L174.173 113.553L173.681 113.644ZM192.347 116.922L192.297 117.419L192.347 116.922ZM219.345 111.866L219.109 111.425L219.345 111.866ZM222.929 109.865L223.229 109.465C223.067 109.344 222.848 109.331 222.674 109.434L222.929 109.865ZM234.253 109.1L233.902 108.743L234.253 109.1ZM234.357 96.7827L234 97.1332L234.357 96.7827ZM228.095 94.1795L227.609 94.0645C227.573 94.2138 227.609 94.3709 227.704 94.4909C227.8 94.6108 227.945 94.6803 228.098 94.6795L228.095 94.1795ZM229.173 89.6177L228.686 89.5027L229.173 89.6177ZM226.712 85.6359L226.827 85.1492L226.827 85.1492L226.712 85.6359ZM222.73 88.0963L222.244 87.9814L222.73 88.0963ZM220.028 99.5413L219.541 99.4264L219.541 99.4264L220.028 99.5413ZM219.939 103.108C219.912 102.08 220.077 101.048 220.433 100.071L219.493 99.7286C219.094 100.825 218.909 101.982 218.94 103.135L219.939 103.108ZM218.071 104.541C218.668 104.198 219.222 103.862 219.713 103.54L219.165 102.703C218.695 103.012 218.158 103.338 217.573 103.674L218.071 104.541ZM189.889 109.262C199.533 110.4 209.586 109.418 218.071 104.541L217.573 103.674C209.335 108.41 199.518 109.391 190.006 108.269L189.889 109.262ZM177.822 107.838L189.889 109.262L190.006 108.269L177.939 106.845L177.822 107.838ZM174.173 113.553C174.107 113.2 174.246 112.672 174.611 112.002C174.963 111.353 175.477 110.661 176.017 110.017C176.554 109.377 177.105 108.799 177.523 108.381C177.732 108.172 177.906 108.004 178.028 107.888C178.089 107.83 178.137 107.786 178.169 107.756C178.186 107.741 178.198 107.729 178.206 107.722C178.21 107.718 178.213 107.716 178.215 107.714C178.216 107.713 178.216 107.712 178.217 107.712C178.217 107.712 178.217 107.712 178.217 107.712C178.217 107.712 178.217 107.712 178.217 107.712C178.217 107.712 178.217 107.712 177.881 107.342C177.544 106.972 177.544 106.972 177.544 106.972C177.544 106.972 177.544 106.972 177.544 106.972C177.544 106.972 177.543 106.973 177.543 106.973C177.542 106.974 177.541 106.975 177.54 106.976C177.538 106.978 177.534 106.981 177.529 106.985C177.52 106.994 177.507 107.006 177.489 107.023C177.454 107.055 177.404 107.102 177.34 107.163C177.213 107.284 177.031 107.458 176.816 107.674C176.385 108.106 175.812 108.705 175.25 109.375C174.691 110.041 174.13 110.792 173.732 111.524C173.346 112.234 173.058 113.025 173.189 113.735L174.173 113.553ZM192.398 116.425C188.004 115.98 183.402 115.45 179.876 114.888C178.11 114.606 176.629 114.319 175.582 114.034C175.056 113.891 174.662 113.755 174.401 113.629C174.27 113.565 174.194 113.514 174.155 113.481C174.11 113.443 174.156 113.464 174.173 113.553L173.189 113.735C173.232 113.967 173.379 114.133 173.504 114.24C173.634 114.352 173.795 114.447 173.966 114.529C174.309 114.695 174.773 114.851 175.32 114.999C176.419 115.299 177.943 115.592 179.718 115.875C183.274 116.442 187.898 116.974 192.297 117.419L192.398 116.425ZM219.109 111.425C210.954 115.785 201.618 117.358 192.398 116.425L192.297 117.419C201.695 118.37 211.232 116.77 219.581 112.307L219.109 111.425ZM222.674 109.434C221.593 110.072 220.378 110.747 219.109 111.425L219.581 112.307C220.857 111.625 222.085 110.943 223.183 110.295L222.674 109.434ZM233.902 108.743C230.97 111.626 226.421 111.859 223.229 109.465L222.629 110.265C226.211 112.951 231.313 112.691 234.603 109.456L233.902 108.743ZM234 97.1332C237.179 100.366 237.135 105.564 233.902 108.743L234.603 109.456C238.23 105.89 238.279 100.059 234.713 96.4321L234 97.1332ZM228.098 94.6795C230.239 94.6672 232.381 95.4865 234 97.1332L234.713 96.4321C232.897 94.585 230.493 93.6657 228.092 93.6795L228.098 94.6795ZM228.582 94.2944L229.659 89.7326L228.686 89.5027L227.609 94.0645L228.582 94.2944ZM229.659 89.7326C230.143 87.6849 228.875 85.6328 226.827 85.1492L226.597 86.1225C228.108 86.4791 229.043 87.9925 228.686 89.5027L229.659 89.7326ZM226.827 85.1492C224.779 84.6657 222.727 85.9336 222.244 87.9814L223.217 88.2112C223.574 86.701 225.087 85.7658 226.597 86.1225L226.827 85.1492ZM222.244 87.9814L219.541 99.4264L220.514 99.6562L223.217 88.2112L222.244 87.9814ZM219.541 99.4264C219.509 99.5637 219.484 99.7013 219.467 99.8385L220.459 99.9612C220.472 99.8599 220.49 99.7582 220.514 99.6562L219.541 99.4264Z" fill="#2C5282"/>
<path d="M220.614 32.8221C229.568 38.1421 241.082 35.9695 247.482 27.7522C253.882 19.535 265.396 17.3624 274.35 22.6824L281.523 60.695C272.568 55.375 261.055 57.5476 254.655 65.7648C248.255 73.982 236.741 76.1546 227.787 70.8346L220.614 32.8221Z" fill="#E9D8FD" stroke="#2C5282" stroke-linejoin="round"/>
<rect x="215.816" y="31.4473" width="5.01941" height="112.852" rx="2.5097" transform="rotate(-10.6858 215.816 31.4473)" fill="white" stroke="#2C5282" stroke-linejoin="round"/>
<path fill-rule="evenodd" clip-rule="evenodd" d="M240.748 106.583C240.55 105.1 239.188 104.059 237.706 104.257L231.343 105.505C229.861 105.703 228.82 107.065 229.018 108.548C229.216 110.03 230.578 111.071 232.06 110.873L238.423 109.625C239.905 109.427 240.946 108.065 240.748 106.583Z" fill="#BEE3F8" stroke="#2C5282" stroke-linecap="round" stroke-linejoin="round"/>
<path fill-rule="evenodd" clip-rule="evenodd" d="M240.102 101.086C239.904 99.6034 238.542 98.5621 237.059 98.76L230.697 100.008C229.215 100.206 228.173 101.568 228.371 103.051C228.569 104.533 229.931 105.574 231.414 105.376L237.776 104.128C239.258 103.93 240.3 102.568 240.102 101.086Z" fill="#BEE3F8" stroke="#2C5282" stroke-linecap="round" stroke-linejoin="round"/>
<path fill-rule="evenodd" clip-rule="evenodd" d="M239.256 95.5472C239.058 94.0648 237.696 93.0235 236.214 93.2214L229.851 94.4696C228.369 94.6675 227.328 96.0297 227.525 97.5121C227.723 98.9945 229.086 100.036 230.568 99.8378L236.93 98.5897C238.413 98.3918 239.454 97.0296 239.256 95.5472Z" fill="#BEE3F8" stroke="#2C5282" stroke-linecap="round" stroke-linejoin="round"/>
<ellipse cx="131.848" cy="106.343" rx="2.54321" ry="6.37838" transform="rotate(-12.3206 131.848 106.343)" fill="#2C5282"/>
<path fill-rule="evenodd" clip-rule="evenodd" d="M122.066 118.504C122.066 118.504 126.722 118.079 129.889 125.193C133.056 132.307 126.736 133.782 126.736 133.782C126.736 133.782 124.893 136.492 122.975 136.746C121.057 136.999 119.706 135.468 119.445 134.718C119.073 135.15 118.461 136.19 116.521 135.571C114.58 134.952 114.211 133.691 114.211 133.691C114.211 133.691 111.996 135.827 109.359 133.265C106.723 130.704 108.891 126.2 110.782 123.397C112.673 120.594 115.379 119.017 115.379 119.017C115.379 119.017 115.601 116.759 115.886 115.498C116.514 112.723 118.021 110.448 119.933 108.556C123.605 104.92 129.291 102.233 134.79 99.7095C136.419 98.9621 138.345 99.6767 139.092 101.305C139.84 102.934 139.125 104.861 137.496 105.608C131.732 108.253 127.2 110.494 124.498 113.168C123.223 114.43 122.504 115.655 122.216 116.929C122.11 117.4 122.052 117.921 122.066 118.504Z" fill="#BEE3F8" stroke="#2C5282" stroke-linejoin="round"/>
<rect x="137.459" y="90.1138" width="40.3785" height="34.4188" rx="17.2094" transform="rotate(8.20054 137.459 90.1138)" fill="#BEE3F8" stroke="#2C5282"/>
<path d="M183.086 105.718L170.898 101.607L169.484 114.147L183.01 117.457C185.844 117.369 187.63 107.571 183.086 105.718Z" fill="#38B2AC" stroke="#2C5282" stroke-linecap="round" stroke-linejoin="round"/>
<path d="M130.503 100.515C132.664 100.863 135.148 105.088 134.324 109.91C134.104 111.2 133.745 111.858 133.321 112.103L134.621 111.687L134.945 111.567C135.811 119.15 141.684 125.497 149.592 126.637L155.49 127.487C164.698 128.814 173.252 122.589 174.882 113.503C175.363 109.312 174.672 105.829 173.473 103.03C172.181 100.334 170.201 98.0005 167.725 96.2884C167.258 97.8462 165.455 101.739 159.24 100.843C151.512 99.7295 148.706 92.9063 148.706 92.9063L148.694 92.9101L148.696 92.9049C148.696 92.9049 145.973 93.6378 143.021 94.7165C140.069 95.7951 130.503 100.515 130.503 100.515Z" fill="#38B2AC"/>
<path d="M133.321 112.103C133.745 111.858 134.104 111.2 134.324 109.91C135.148 105.088 132.664 100.863 130.503 100.515C130.503 100.515 140.069 95.7951 143.021 94.7165C145.973 93.6378 148.696 92.9049 148.696 92.9049L148.694 92.9101L148.706 92.9063C148.706 92.9063 151.512 99.7295 159.24 100.843C165.455 101.739 167.258 97.8462 167.725 96.2884C170.201 98.0005 172.181 100.334 173.473 103.03C174.672 105.829 175.363 109.312 174.882 113.503C173.252 122.589 164.698 128.814 155.49 127.487L149.592 126.637C141.684 125.497 135.811 119.15 134.945 111.567L134.621 111.687L133.321 112.103ZM133.321 112.103L132.974 112.214" stroke="#2C5282" stroke-linecap="round" stroke-linejoin="round"/>
<path d="M134.961 111.594L144.196 107.796" stroke="#2C5282" stroke-linecap="round" stroke-linejoin="round"/>
<circle cx="159.894" cy="110.733" r="5.66231" transform="rotate(8.20054 159.894 110.733)" fill="white" stroke="#2C5282"/>
<path fill-rule="evenodd" clip-rule="evenodd" d="M203.408 13.1464C193.265 11.6847 183.858 18.7221 182.396 28.865L179.393 49.7005C179.242 50.7496 178.269 51.4775 177.22 51.3263C176.171 51.1751 175.443 50.2021 175.594 49.1531L178.597 28.3175C180.361 16.0766 191.714 7.58338 203.955 9.34744C205.004 9.49862 205.732 10.4716 205.581 11.5207C205.43 12.5697 204.457 13.2976 203.408 13.1464Z" fill="#BEE3F8" stroke="#2C5282" stroke-linecap="round" stroke-linejoin="round"/>
<path d="M210.178 12.1837C209.746 15.1788 206.968 17.2568 203.973 16.8252C200.978 16.3936 198.9 13.6157 199.332 10.6207C199.763 7.6257 202.541 5.54765 205.536 5.97927C208.531 6.41089 210.609 9.18873 210.178 12.1837Z" fill="#BEE3F8" stroke="#2C5282"/>
<path fill-rule="evenodd" clip-rule="evenodd" d="M172.162 8.64347C162.019 7.18176 152.611 14.2192 151.15 24.3621L148.147 45.1976C147.996 46.2467 147.023 46.9745 145.974 46.8233C144.925 46.6722 144.197 45.6992 144.348 44.6501L147.351 23.8146C149.115 11.5736 160.468 3.08045 172.709 4.84451C173.758 4.99569 174.486 5.96867 174.335 7.01773C174.184 8.06678 173.211 8.79465 172.162 8.64347Z" fill="#BEE3F8" stroke="#2C5282" stroke-linecap="round" stroke-linejoin="round"/>
<path d="M178.932 7.68033C178.5 10.6754 175.722 12.7534 172.727 12.3218C169.732 11.8902 167.654 9.11233 168.086 6.1173C168.517 3.12228 171.295 1.04423 174.29 1.47585C177.285 1.90747 179.363 4.68531 178.932 7.68033Z" fill="#BEE3F8" stroke="#2C5282"/>
<rect x="118.926" y="24.7524" width="95.2961" height="64.5554" rx="32.2777" transform="rotate(8.20054 118.926 24.7524)" fill="#BEE3F8" stroke="#2C5282"/>
<path d="M175.864 70.19C175.504 72.6901 173.185 74.4248 170.685 74.0645C168.185 73.7042 166.45 71.3854 166.811 68.8853" stroke="#2C5282" stroke-linecap="round" stroke-linejoin="round"/>
<circle cx="147.032" cy="61.4155" r="15.2454" transform="rotate(8.20054 147.032 61.4155)" fill="white" stroke="#2C5282"/>
<circle cx="153.027" cy="59.9832" r="3.90985" transform="rotate(8.20054 153.027 59.9832)" fill="#2C5282"/>
<circle cx="197.62" cy="68.705" r="15.2454" transform="rotate(8.20054 197.62 68.705)" fill="white" stroke="#2C5282"/>
<circle cx="204.726" cy="67.432" r="3.90985" transform="rotate(8.20054 204.726 67.432)" fill="#2C5282"/>
<rect x="145.326" y="37.8638" width="7.768" height="3.78063" rx="1.89031" transform="rotate(8.20054 145.326 37.8638)" fill="#2C5282"/>
<rect x="200.635" y="45.8335" width="7.768" height="3.78063" rx="1.89031" transform="rotate(8.20054 200.635 45.8335)" fill="#2C5282"/>
<path d="M120.057 135.729C118.593 133.894 117.908 130.58 118.671 128.963" stroke="#2C5282" stroke-linecap="round"/>
<path d="M114.656 134.507C113.402 132.77 113.266 130.321 114.38 128.233" stroke="#2C5282" stroke-linecap="round"/>
<path d="M126.102 134.57C126.24 129.457 126.237 126.683 123.792 127.332C121.347 127.98 123.109 132.07 123.109 132.07" stroke="#2C5282" stroke-linecap="round"/>
<path d="M156.766 167.763L152.51 149.727" stroke="#2C5282" stroke-linecap="round"/>
<path d="M144.955 169.27L140.699 151.233" stroke="#2C5282" stroke-linecap="round"/>
<path d="M277.616 108.846L277.977 108.895L278.134 108.565C280.272 104.074 284.852 100.971 290.155 100.971C295.458 100.971 300.038 104.074 302.176 108.565L302.333 108.895L302.694 108.846C303.108 108.79 303.53 108.762 303.96 108.762C309.157 108.762 313.37 112.975 313.37 118.172C313.37 123.369 309.157 127.582 303.96 127.582H303.946H303.932H303.918H303.904H303.89H303.876H303.862H303.848H303.833H303.819H303.805H303.791H303.776H303.762H303.747H303.733H303.718H303.704H303.689H303.675H303.66H303.646H303.631H303.616H303.602H303.587H303.572H303.557H303.542H303.527H303.513H303.498H303.483H303.468H303.453H303.438H303.423H303.408H303.392H303.377H303.362H303.347H303.332H303.316H303.301H303.286H303.271H303.255H303.24H303.225H303.209H303.194H303.178H303.163H303.147H303.132H303.116H303.101H303.085H303.07H303.054H303.038H303.023H303.007H302.991H302.976H302.96H302.944H302.928H302.913H302.897H302.881H302.865H302.849H302.833H302.817H302.802H302.786H302.77H302.754H302.738H302.722H302.706H302.69H302.674H302.658H302.642H302.625H302.609H302.593H302.577H302.561H302.545H302.529H302.513H302.496H302.48H302.464H302.448H302.432H302.415H302.399H302.383H302.367H302.35H302.334H302.318H302.301H302.285H302.269H302.252H302.236H302.22H302.203H302.187H302.171H302.154H302.138H302.122H302.105H302.089H302.072H302.056H302.04H302.023H302.007H301.99H301.974H301.957H301.941H301.924H301.908H301.892H301.875H301.859H301.842H301.826H301.809H301.793H301.776H301.76H301.743H301.727H301.711H301.694H301.678H301.661H301.645H301.628H301.612H301.595H301.579H301.562H301.546H301.529H301.513H301.497H301.48H301.464H301.447H301.431H301.414H301.398H301.382H301.365H301.349H301.332H301.316H301.299H301.283H301.267H301.25H301.234H301.218H301.201H301.185H301.169H301.152H301.136H301.12H301.103H301.087H301.071H301.054H301.038H301.022H301.006H300.989H300.973H300.957H300.941H300.925H300.908H300.892H300.876H300.86H300.844H300.828H300.812H300.795H300.779H300.763H300.747H300.731H300.715H300.699H300.683H300.667H300.651H300.635H300.619H300.603H300.588H300.572H300.556H300.54H300.524H300.508H300.493H300.477H300.461H300.445H300.43H300.414H300.398H300.383H300.367H300.351H300.336H300.32H300.305H300.289H300.273H300.258H300.243H300.227H300.212H300.196H300.181H300.165H300.15H300.135H300.12H300.104H300.089H300.074H300.059H300.043H300.028H300.013H299.998H299.983H299.968H299.953H299.938H299.923H299.908H299.893H299.878H299.864H299.849H299.834H299.819H299.804H299.79H299.775H299.76H299.746H299.731H299.717H299.702H299.688H299.673H299.659H299.644H299.63H299.616H299.601H299.587H299.573H299.559H299.544H299.53H299.516H299.502H299.488H299.474H299.46H299.446H299.432H299.418H299.405H299.391H299.377H299.363H299.35H299.336H299.322H299.309H299.295H299.282H299.268H299.255H299.242H299.228H299.215H299.202H299.189H299.175H299.162H299.149H299.136H299.123H299.11H299.097H299.084H299.071H299.059H299.046H299.033H299.02H299.008H298.995H298.983H298.97H298.958H298.945H298.933H298.921H298.908H298.896H298.884H298.872H298.86H298.847H298.835H298.824H298.812H298.8H298.788H298.776H298.764H298.753H298.741H298.73H298.718H298.707H298.695H298.684H298.672H298.661H298.65H298.639H298.628H298.616H298.605H298.594H298.584H298.573H298.562H298.551H298.54H298.53H298.519H298.508H298.498H298.488H298.477H298.467H298.457H298.446H298.436H298.426H298.416H298.406H298.396H298.386H298.376H298.366H298.357H298.347H298.337H298.328H298.318H298.309H298.3H298.29H298.281H298.272H298.263H298.254H298.245H298.236H298.227H298.218H298.209H298.2H298.192H298.183H298.175H298.166H298.158H298.149H298.141H298.133H298.125H298.117H298.109H298.101H298.093H298.085H298.077H298.069H298.062H298.054H298.047H298.039H298.032H298.025H298.017H298.01H298.003H297.996H297.989H297.982H297.975H297.969H297.962H297.955H297.949H297.942H297.936H297.929H297.923H297.917H297.911H297.905H297.899H297.893H297.887H297.881H297.876H297.87H297.864H297.859H297.853H297.848H297.843H297.838H297.833H297.827H297.822H297.818H297.813H297.808H297.803H297.799H297.794H297.79H297.785H297.781H297.777H297.773H297.769H297.765H297.761H297.757H297.753H297.75H297.746H297.743H297.739H297.736H297.733H297.729H297.726H297.723H297.72H297.717H297.715H297.712H297.709H297.707H297.704H297.702H297.7H297.697H297.695H297.693H297.691H297.689H297.688H297.686H297.684H297.683H297.681H297.68H297.679H297.678H297.676H297.675H297.675H297.674H297.673H297.672H297.672H297.671H297.671H297.671H297.67H297.67L297.67 128.082L297.67 127.582H297.67H297.67H297.669H297.669H297.668H297.667H297.667H297.666H297.665H297.664H297.662H297.661H297.66H297.658H297.656H297.655H297.653H297.651H297.649H297.647H297.644H297.642H297.64H297.637H297.634H297.632H297.629H297.626H297.623H297.62H297.616H297.613H297.609H297.606H297.602H297.598H297.595H297.591H297.587H297.582H297.578H297.574H297.569H297.565H297.56H297.556H297.551H297.546H297.541H297.536H297.531H297.525H297.52H297.514H297.509H297.503H297.498H297.492H297.486H297.48H297.474H297.468H297.461H297.455H297.448H297.442H297.435H297.429H297.422H297.415H297.408H297.401H297.394H297.386H297.379H297.372H297.364H297.357H297.349H297.341H297.333H297.325H297.317H297.309H297.301H297.293H297.284H297.276H297.268H297.259H297.25H297.242H297.233H297.224H297.215H297.206H297.197H297.187H297.178H297.169H297.159H297.15H297.14H297.13H297.121H297.111H297.101H297.091H297.081H297.071H297.06H297.05H297.04H297.029H297.019H297.008H296.998H296.987H296.976H296.965H296.954H296.943H296.932H296.921H296.91H296.898H296.887H296.875H296.864H296.852H296.841H296.829H296.817H296.805H296.793H296.781H296.769H296.757H296.745H296.733H296.72H296.708H296.695H296.683H296.67H296.658H296.645H296.632H296.619H296.606H296.593H296.58H296.567H296.554H296.541H296.527H296.514H296.501H296.487H296.474H296.46H296.446H296.433H296.419H296.405H296.391H296.377H296.363H296.349H296.335H296.321H296.306H296.292H296.278H296.263H296.249H296.234H296.22H296.205H296.19H296.176H296.161H296.146H296.131H296.116H296.101H296.086H296.071H296.056H296.041H296.025H296.01H295.995H295.979H295.964H295.948H295.933H295.917H295.901H295.886H295.87H295.854H295.838H295.822H295.806H295.79H295.774H295.758H295.742H295.726H295.71H295.693H295.677H295.661H295.644H295.628H295.611H295.595H295.578H295.562H295.545H295.528H295.511H295.495H295.478H295.461H295.444H295.427H295.41H295.393H295.376H295.359H295.342H295.324H295.307H295.29H295.273H295.255H295.238H295.221H295.203H295.186H295.168H295.151H295.133H295.115H295.098H295.08H295.062H295.044H295.027H295.009H294.991H294.973H294.955H294.937H294.919H294.901H294.883H294.865H294.847H294.829H294.811H294.792H294.774H294.756H294.738H294.719H294.701H294.683H294.664H294.646H294.627H294.609H294.59H294.572H294.553H294.535H294.516H294.497H294.479H294.46H294.441H294.423H294.404H294.385H294.366H294.347H294.329H294.31H294.291H294.272H294.253H294.234H294.215H294.196H294.177H294.158H294.139H294.12H294.101H294.082H294.063H294.044H294.024H294.005H293.986H293.967H293.948H293.928H293.909H293.89H293.871H293.851H293.832H293.813H293.793H293.774H293.755H293.735H293.716H293.696H293.677H293.658H293.638H293.619H293.599H293.58H293.56H293.541H293.521H293.502H293.482H293.463H293.443H293.424H293.404H293.385H293.365H293.346H293.326H293.306H293.287H293.267H293.248H293.228H293.208H293.189H293.169H293.15H293.13H293.11H293.091H293.071H293.051H293.032H293.012H292.993H292.973H292.953H292.934H292.914H292.894H292.875H292.855H292.835H292.816H292.796H292.777H292.757H292.737H292.718H292.698H292.678H292.659H292.639H292.62H292.6H292.58H292.561H292.541H292.522H292.502H292.483H292.463H292.443H292.424H292.404H292.385H292.365H292.346H292.326H292.307H292.287H292.268H292.248H292.229H292.209H292.19H292.171H292.151H292.132H292.112H292.093H292.074H292.054H292.035H292.016H291.996H291.977H291.958H291.939H291.919H291.9H291.881H291.862H291.843H291.823H291.804H291.785H291.766H291.747H291.728H291.709H291.69H291.671H291.652H291.633H291.614H291.595H291.576H291.557H291.538H291.519H291.5H291.482H291.463H291.444H291.425H291.406H291.388H291.369H291.35H291.332H291.313H291.295H291.276H291.258H291.239H291.221H291.202H291.184H291.165H291.147H291.129H291.11H291.092H291.074H291.056H291.037H291.019H291.001H290.983H290.965H290.947H290.929H290.911H290.893H290.875H290.857H290.839H290.821H290.804H290.786H290.768H290.75H290.733H290.715H290.698H290.68H290.662H290.645H290.628H290.61H290.593H290.575H290.558H290.541H290.524H290.506H290.489H290.472H290.455H290.438H290.421H290.404H290.387H290.37H290.354H290.337H290.32H290.303H290.287H290.27H290.253H290.237H290.22H290.204H290.188H290.171H290.155H290.139H290.122H290.106H290.089H290.073H290.056H290.04H290.023H290.006H289.99H289.973H289.956H289.939H289.922H289.905H289.888H289.871H289.854H289.837H289.82H289.803H289.786H289.768H289.751H289.734H289.716H289.699H289.681H289.664H289.646H289.629H289.611H289.593H289.576H289.558H289.54H289.522H289.505H289.487H289.469H289.451H289.433H289.415H289.397H289.379H289.36H289.342H289.324H289.306H289.288H289.269H289.251H289.233H289.214H289.196H289.177H289.159H289.14H289.122H289.103H289.085H289.066H289.047H289.029H289.01H288.991H288.973H288.954H288.935H288.916H288.897H288.878H288.859H288.84H288.822H288.803H288.784H288.764H288.745H288.726H288.707H288.688H288.669H288.65H288.631H288.611H288.592H288.573H288.554H288.534H288.515H288.496H288.476H288.457H288.438H288.418H288.399H288.379H288.36H288.34H288.321H288.301H288.282H288.262H288.243H288.223H288.203H288.184H288.164H288.145H288.125H288.105H288.086H288.066H288.046H288.027H288.007H287.987H287.967H287.948H287.928H287.908H287.888H287.869H287.849H287.829H287.809H287.789H287.769H287.75H287.73H287.71H287.69H287.67H287.65H287.63H287.611H287.591H287.571H287.551H287.531H287.511H287.491H287.471H287.451H287.431H287.412H287.392H287.372H287.352H287.332H287.312H287.292H287.272H287.252H287.232H287.212H287.192H287.172H287.153H287.133H287.113H287.093H287.073H287.053H287.033H287.013H286.993H286.973H286.953H286.934H286.914H286.894H286.874H286.854H286.834H286.814H286.795H286.775H286.755H286.735H286.715H286.696H286.676H286.656H286.636H286.616H286.597H286.577H286.557H286.538H286.518H286.498H286.479H286.459H286.439H286.42H286.4H286.38H286.361H286.341H286.322H286.302H286.283H286.263H286.243H286.224H286.205H286.185H286.166H286.146H286.127H286.107H286.088H286.069H286.049H286.03H286.011H285.992H285.972H285.953H285.934H285.915H285.896H285.876H285.857H285.838H285.819H285.8H285.781H285.762H285.743H285.724H285.705H285.686H285.667H285.649H285.63H285.611H285.592H285.573H285.555H285.536H285.517H285.499H285.48H285.461H285.443H285.424H285.406H285.387H285.369H285.351H285.332H285.314H285.296H285.277H285.259H285.241H285.223H285.205H285.186H285.168H285.15H285.132H285.114H285.096H285.078H285.061H285.043H285.025H285.007H284.989H284.972H284.954H284.937H284.919H284.901H284.884H284.866H284.849H284.832H284.814H284.797H284.78H284.763H284.745H284.728H284.711H284.694H284.677H284.66H284.643H284.626H284.609H284.593H284.576H284.559H284.543H284.526H284.509H284.493H284.476H284.46H284.444H284.427H284.411H284.395H284.379H284.362H284.346H284.33H284.314H284.298H284.282H284.267H284.251H284.235H284.219H284.204H284.188H284.173H284.157H284.142H284.126H284.111H284.096H284.08H284.065H284.05H284.035H284.02H284.005H283.99H283.975H283.961H283.946H283.931H283.917H283.902H283.887H283.873H283.859H283.844H283.83H283.816H283.802H283.788H283.774H283.76H283.746H283.732H283.718H283.704H283.691H283.677H283.664H283.65H283.637H283.623H283.61H283.597H283.584H283.571H283.558H283.545H283.532H283.519H283.506H283.494H283.481H283.468H283.456H283.444H283.431H283.419H283.407H283.395H283.382H283.37H283.359H283.347H283.335H283.323H283.312H283.3H283.288H283.277H283.266H283.254H283.243H283.232H283.221H283.21H283.199H283.188H283.177H283.167H283.156H283.146H283.135H283.125H283.114H283.104H283.094H283.084H283.074H283.064H283.054H283.044H283.035H283.025H283.016H283.006H282.997H282.988H282.978H282.969H282.96H282.951H282.942H282.934H282.925H282.916H282.908H282.899H282.891H282.883H282.875H282.866H282.858H282.85H282.843H282.835H282.827H282.82H282.812H282.805H282.797H282.79H282.783H282.776H282.769H282.762H282.755H282.748H282.742H282.735H282.729H282.723H282.716H282.71H282.704H282.698H282.692H282.687H282.681H282.675H282.67H282.664H282.659H282.654H282.649H282.644H282.639H282.634H282.629H282.625H282.62H282.616H282.611H282.607H282.603H282.599H282.595H282.591H282.587H282.584H282.58H282.577H282.573H282.57H282.567H282.564H282.561H282.558H282.555H282.553H282.55H282.548H282.545H282.543H282.541H282.539H282.537H282.535H282.534H282.532H282.531H282.529H282.528H282.527H282.526H282.525H282.524H282.523H282.523H282.522H282.522H282.522H282.521L282.521 128.082L282.521 127.582H282.521H282.521H282.521H282.52H282.52H282.519H282.519H282.518H282.517H282.516H282.515H282.514H282.513H282.512H282.51H282.509H282.508H282.506H282.504H282.503H282.501H282.499H282.497H282.495H282.493H282.491H282.488H282.486H282.483H282.481H282.478H282.476H282.473H282.47H282.467H282.464H282.461H282.458H282.454H282.451H282.448H282.444H282.441H282.437H282.433H282.43H282.426H282.422H282.418H282.414H282.409H282.405H282.401H282.397H282.392H282.388H282.383H282.378H282.374H282.369H282.364H282.359H282.354H282.349H282.343H282.338H282.333H282.327H282.322H282.316H282.311H282.305H282.299H282.294H282.288H282.282H282.276H282.27H282.263H282.257H282.251H282.245H282.238H282.232H282.225H282.218H282.212H282.205H282.198H282.191H282.184H282.177H282.17H282.163H282.156H282.148H282.141H282.134H282.126H282.119H282.111H282.103H282.096H282.088H282.08H282.072H282.064H282.056H282.048H282.04H282.031H282.023H282.015H282.006H281.998H281.989H281.981H281.972H281.963H281.955H281.946H281.937H281.928H281.919H281.91H281.901H281.892H281.882H281.873H281.864H281.854H281.845H281.835H281.826H281.816H281.806H281.797H281.787H281.777H281.767H281.757H281.747H281.737H281.727H281.717H281.707H281.696H281.686H281.676H281.665H281.655H281.644H281.634H281.623H281.612H281.602H281.591H281.58H281.569H281.558H281.547H281.536H281.525H281.514H281.503H281.492H281.48H281.469H281.458H281.446H281.435H281.423H281.412H281.4H281.388H281.377H281.365H281.353H281.341H281.329H281.318H281.306H281.294H281.281H281.269H281.257H281.245H281.233H281.221H281.208H281.196H281.183H281.171H281.159H281.146H281.133H281.121H281.108H281.096H281.083H281.07H281.057H281.044H281.032H281.019H281.006H280.993H280.98H280.967H280.953H280.94H280.927H280.914H280.901H280.887H280.874H280.861H280.847H280.834H280.82H280.807H280.793H280.78H280.766H280.752H280.739H280.725H280.711H280.697H280.683H280.67H280.656H280.642H280.628H280.614H280.6H280.586H280.572H280.558H280.543H280.529H280.515H280.501H280.487H280.472H280.458H280.444H280.429H280.415H280.4H280.386H280.371H280.357H280.342H280.328H280.313H280.298H280.284H280.269H280.254H280.24H280.225H280.21H280.195H280.18H280.165H280.151H280.136H280.121H280.106H280.091H280.076H280.061H280.046H280.031H280.015H280H279.985H279.97H279.955H279.94H279.924H279.909H279.894H279.879H279.863H279.848H279.833H279.817H279.802H279.786H279.771H279.755H279.74H279.724H279.709H279.693H279.678H279.662H279.647H279.631H279.616H279.6H279.584H279.569H279.553H279.537H279.522H279.506H279.49H279.474H279.459H279.443H279.427H279.411H279.395H279.38H279.364H279.348H279.332H279.316H279.3H279.284H279.268H279.252H279.237H279.221H279.205H279.189H279.173H279.157H279.141H279.125H279.109H279.093H279.077H279.061H279.045H279.028H279.012H278.996H278.98H278.964H278.948H278.932H278.916H278.9H278.884H278.868H278.851H278.835H278.819H278.803H278.787H278.771H278.754H278.738H278.722H278.706H278.69H278.674H278.657H278.641H278.625H278.609H278.593H278.577H278.56H278.544H278.528H278.512H278.496H278.479H278.463H278.447H278.431H278.415H278.399H278.382H278.366H278.35H278.334H278.318H278.301H278.285H278.269H278.253H278.237H278.221H278.204H278.188H278.172H278.156H278.14H278.124H278.108H278.092H278.075H278.059H278.043H278.027H278.011H277.995H277.979H277.963H277.947H277.931H277.915H277.899H277.883H277.867H277.851H277.835H277.819H277.803H277.787H277.771H277.755H277.739H277.723H277.707H277.691H277.675H277.659H277.643H277.628H277.612H277.596H277.58H277.564H277.548H277.533H277.517H277.501H277.485H277.47H277.454H277.438H277.423H277.407H277.391H277.376H277.36H277.345H277.329H277.313H277.298H277.282H277.267H277.251H277.236H277.22H277.205H277.19H277.174H277.159H277.143H277.128H277.113H277.097H277.082H277.067H277.052H277.036H277.021H277.006H276.991H276.976H276.961H276.946H276.931H276.916H276.901H276.886H276.871H276.856H276.841H276.826H276.811H276.796H276.781H276.766H276.752H276.737H276.722H276.708H276.693H276.678H276.664H276.649H276.635H276.62H276.606H276.591H276.577H276.562H276.548H276.533H276.519H276.505H276.491H276.476H276.462H276.448H276.434H276.42H276.406H276.392H276.378H276.364H276.35C271.152 127.582 266.939 123.369 266.939 118.172C266.939 112.975 271.152 108.762 276.35 108.762C276.779 108.762 277.202 108.79 277.616 108.846Z" fill="white" stroke="#2C5282"/>
</svg>
