<svg viewBox="0 0 24 24" fill="currentColor" xmlns="http://www.w3.org/2000/svg">
<path fill-rule="evenodd" clip-rule="evenodd" d="M9 7C10.1046 7 11 6.10457 11 5C11 3.89543 10.1046 3 9 3C7.89543 3 7 3.89543 7 5C7 6.10457 7.89543 7 9 7ZM4.8259 13.8881L6.59961 11.2899V14.9327V20C6.59961 20.5523 7.04732 21 7.59961 21C8.15189 21 8.59961 20.5523 8.59961 20V15.3313C8.74542 15.3471 8.88149 15.3564 9 15.3564C9.13086 15.3564 9.28312 15.3451 9.44629 15.3261V20C9.44629 20.5523 9.894 21 10.4463 21C10.9986 21 11.4463 20.5523 11.4463 20V15.2457C11.1586 14.5458 11 13.7792 11 12.9756C11 11.5276 11.515 10.1999 12.3719 9.16567L12.3036 9.06566C10.7155 6.73934 7.28449 6.73935 5.69639 9.06566L3.1741 12.7604C2.86271 13.2166 2.98005 13.8388 3.43618 14.1501C3.89231 14.4615 4.51451 14.3442 4.8259 13.8881Z" />
<path fill-rule="evenodd" clip-rule="evenodd" d="M17 18C19.7614 18 22 15.7614 22 13C22 10.2386 19.7614 8 17 8C14.2386 8 12 10.2386 12 13C12 15.7614 14.2386 18 17 18ZM19.794 12.2633C20.2223 12.6592 20.2223 13.3361 19.794 13.732L18.0299 15.3625C17.8272 15.55 17.5108 15.5375 17.3234 15.3348C17.1359 15.132 17.1484 14.8156 17.3512 14.6282L18.5084 13.5586H14.3848C14.1087 13.5586 13.8848 13.3347 13.8848 13.0586C13.8848 12.7825 14.1087 12.5586 14.3848 12.5586H18.6402L17.3512 11.3672C17.1484 11.1797 17.1359 10.8634 17.3234 10.6606C17.5108 10.4578 17.8272 10.4454 18.0299 10.6328L19.794 12.2633Z" />
</svg>
